<svg id="bold" height="512" viewBox="0 0 24 24" width="512" xmlns="http://www.w3.org/2000/svg"><circle cx="10.5" cy="22.5" r="1.5"/><circle cx="18.5" cy="22.5" r="1.5"/><path d="m24 6.5c0 3.584-2.916 6.5-6.5 6.5s-6.5-2.916-6.5-6.5 2.916-6.5 6.5-6.5 6.5 2.916 6.5 6.5zm-5.086 0 1.293-1.293c.391-.391.391-1.023 0-1.414s-1.023-.391-1.414 0l-1.293 1.293-1.293-1.293c-.391-.391-1.023-.391-1.414 0s-.391 1.023 0 1.414l1.293 1.293-1.293 1.293c-.391.391-.391 1.023 0 1.414s1.023.391 1.414 0l1.293-1.293 1.293 1.293c.391.391 1.023.391 1.414 0s.391-1.023 0-1.414z"/><path d="m9 6.5c0-.169.015-.334.025-.5h-2.666l-.38-1.806c-.266-1.26-1.392-2.178-2.679-2.183l-2.547-.011c-.001 0-.002 0-.003 0-.413 0-.748.333-.75.747s.333.751.747.753l2.546.011c.585.002 1.097.42 1.218.992l.505 2.401 1.81 8.596h-.576c-1.241 0-2.25 1.009-2.25 2.25s1.009 2.25 2.25 2.25h15c.414 0 .75-.336.75-.75s-.336-.75-.75-.75h-15c-.414 0-.75-.336-.75-.75s.336-.75.75-.75h1.499.001 13.5c.354 0 .661-.249.734-.596l.665-3.157c-1.431 1.095-3.213 1.753-5.149 1.753-4.687 0-8.5-3.813-8.5-8.5z"/></svg>